<svg xmlns="http://www.w3.org/2000/svg" viewBox="0 0 54 54"><rect width="54" height="54" rx="9.735" ry="9.735" fill="#1a1a1a"/><path fill="#fff" d="m28.46 16.146-.037 6.475c-1.407-1.073-4.219-2.257-7.66-2.257-2.035 0-2.85.666-2.85 1.59 0 .926.63 1.296 3.33 2.073 7.105 2.072 8.918 4.515 8.918 8.252 0 4.921-4.07 7.955-10.434 7.955-3.811 0-6.698-.925-8.918-2.22l.037-6.734c2.294 1.776 5.662 3.07 8.844 3.07 2.035 0 2.96-.554 2.96-1.627s-.962-1.591-3.59-2.295c-5.031-1.406-8.584-3.145-8.584-7.992 0-4.7 3.811-7.956 10.287-7.956 2.997 0 5.957.555 7.696 1.666M40.269 20.623h3.552v5.143H40.27v6.587c0 1.776.74 2.442 1.998 2.442.407 0 .999-.074 1.554-.26l.037 5.107c-.814.296-1.702.481-3.367.481-4.218 0-6.698-1.998-6.698-6.734v-7.623h-2.775v-5.143h2.775v-4.847h6.476z"/></svg>
